<mxfile host="app.diagrams.net" modified="2022-12-30T08:36:44.213Z" agent="5.0 (Windows NT 10.0; Win64; x64) AppleWebKit/537.36 (KHTML, like Gecko) Chrome/108.0.0.0 Safari/537.36" etag="xVAcCmBowbIMyaqNTK3Q" version="20.7.4" type="github">
  <diagram id="-tUx-2XOntA3NxHoDpPF" name="第 1 页">
    <mxGraphModel dx="1434" dy="764" grid="1" gridSize="10" guides="1" tooltips="1" connect="1" arrows="1" fold="1" page="1" pageScale="1" pageWidth="2339" pageHeight="3300" math="0" shadow="0">
      <root>
        <mxCell id="0" />
        <mxCell id="1" parent="0" />
        <mxCell id="jL19WNAzU7R48gSfyLo7-1" value="设计" style="rounded=0;whiteSpace=wrap;html=1;" parent="1" vertex="1">
          <mxGeometry x="120" y="160" width="80" height="40" as="geometry" />
        </mxCell>
        <mxCell id="jL19WNAzU7R48gSfyLo7-3" value="安全评审" style="rounded=0;whiteSpace=wrap;html=1;fillColor=#d5e8d4;strokeColor=#82b366;" parent="1" vertex="1">
          <mxGeometry x="240" y="160" width="80" height="40" as="geometry" />
        </mxCell>
        <mxCell id="jL19WNAzU7R48gSfyLo7-4" value="提交代码" style="rounded=0;whiteSpace=wrap;html=1;" parent="1" vertex="1">
          <mxGeometry x="360" y="160" width="80" height="40" as="geometry" />
        </mxCell>
        <mxCell id="jL19WNAzU7R48gSfyLo7-6" value="SAST" style="rounded=0;whiteSpace=wrap;html=1;fillColor=#d5e8d4;strokeColor=#82b366;" parent="1" vertex="1">
          <mxGeometry x="480" y="160" width="80" height="40" as="geometry" />
        </mxCell>
        <mxCell id="jL19WNAzU7R48gSfyLo7-7" value="Code Review" style="rounded=0;whiteSpace=wrap;html=1;" parent="1" vertex="1">
          <mxGeometry x="600" y="160" width="80" height="40" as="geometry" />
        </mxCell>
        <mxCell id="jL19WNAzU7R48gSfyLo7-8" value="Make Build" style="rounded=0;whiteSpace=wrap;html=1;" parent="1" vertex="1">
          <mxGeometry x="720" y="160" width="80" height="40" as="geometry" />
        </mxCell>
        <mxCell id="jL19WNAzU7R48gSfyLo7-9" value="SCA" style="rounded=0;whiteSpace=wrap;html=1;fillColor=#d5e8d4;strokeColor=#82b366;" parent="1" vertex="1">
          <mxGeometry x="720" y="300" width="80" height="40" as="geometry" />
        </mxCell>
        <mxCell id="jL19WNAzU7R48gSfyLo7-10" value="Smoke and Unittests" style="rounded=0;whiteSpace=wrap;html=1;" parent="1" vertex="1">
          <mxGeometry x="480" y="300" width="80" height="40" as="geometry" />
        </mxCell>
        <mxCell id="jL19WNAzU7R48gSfyLo7-11" value="IAST" style="rounded=0;whiteSpace=wrap;html=1;fillColor=#fad7ac;strokeColor=#b46504;" parent="1" vertex="1">
          <mxGeometry x="360" y="335" width="80" height="40" as="geometry" />
        </mxCell>
        <mxCell id="jL19WNAzU7R48gSfyLo7-12" value="Merge branch to production" style="rounded=0;whiteSpace=wrap;html=1;" parent="1" vertex="1">
          <mxGeometry x="240" y="295" width="80" height="40" as="geometry" />
        </mxCell>
        <mxCell id="jL19WNAzU7R48gSfyLo7-13" value="HIDS" style="rounded=0;whiteSpace=wrap;html=1;fillColor=#d5e8d4;strokeColor=#82b366;" parent="1" vertex="1">
          <mxGeometry x="120" y="265" width="80" height="40" as="geometry" />
        </mxCell>
        <mxCell id="jL19WNAzU7R48gSfyLo7-14" value="DAST" style="rounded=0;whiteSpace=wrap;html=1;fillColor=#d5e8d4;strokeColor=#82b366;" parent="1" vertex="1">
          <mxGeometry x="120" y="335" width="80" height="40" as="geometry" />
        </mxCell>
        <mxCell id="jL19WNAzU7R48gSfyLo7-17" value="" style="endArrow=classic;html=1;rounded=0;entryX=0;entryY=0.5;entryDx=0;entryDy=0;" parent="1" target="jL19WNAzU7R48gSfyLo7-3" edge="1">
          <mxGeometry width="50" height="50" relative="1" as="geometry">
            <mxPoint x="200" y="180" as="sourcePoint" />
            <mxPoint x="250" y="130" as="targetPoint" />
          </mxGeometry>
        </mxCell>
        <mxCell id="jL19WNAzU7R48gSfyLo7-18" value="" style="endArrow=classic;html=1;rounded=0;entryX=0;entryY=0.5;entryDx=0;entryDy=0;exitX=1;exitY=0.5;exitDx=0;exitDy=0;" parent="1" source="jL19WNAzU7R48gSfyLo7-3" target="jL19WNAzU7R48gSfyLo7-4" edge="1">
          <mxGeometry width="50" height="50" relative="1" as="geometry">
            <mxPoint x="340" y="180" as="sourcePoint" />
            <mxPoint x="380" y="180" as="targetPoint" />
          </mxGeometry>
        </mxCell>
        <mxCell id="jL19WNAzU7R48gSfyLo7-20" value="" style="endArrow=classic;html=1;rounded=0;entryX=0;entryY=0.5;entryDx=0;entryDy=0;" parent="1" edge="1">
          <mxGeometry width="50" height="50" relative="1" as="geometry">
            <mxPoint x="440" y="179.5" as="sourcePoint" />
            <mxPoint x="480" y="179.5" as="targetPoint" />
          </mxGeometry>
        </mxCell>
        <mxCell id="jL19WNAzU7R48gSfyLo7-21" value="" style="endArrow=classic;html=1;rounded=0;entryX=0;entryY=0.5;entryDx=0;entryDy=0;" parent="1" edge="1">
          <mxGeometry width="50" height="50" relative="1" as="geometry">
            <mxPoint x="560" y="179.5" as="sourcePoint" />
            <mxPoint x="600" y="179.5" as="targetPoint" />
          </mxGeometry>
        </mxCell>
        <mxCell id="jL19WNAzU7R48gSfyLo7-22" value="" style="endArrow=classic;html=1;rounded=0;entryX=0;entryY=0.5;entryDx=0;entryDy=0;" parent="1" edge="1">
          <mxGeometry width="50" height="50" relative="1" as="geometry">
            <mxPoint x="680" y="179.5" as="sourcePoint" />
            <mxPoint x="720" y="179.5" as="targetPoint" />
          </mxGeometry>
        </mxCell>
        <mxCell id="jL19WNAzU7R48gSfyLo7-24" value="" style="endArrow=classic;html=1;rounded=0;entryX=1;entryY=0.5;entryDx=0;entryDy=0;" parent="1" target="jL19WNAzU7R48gSfyLo7-9" edge="1">
          <mxGeometry width="50" height="50" relative="1" as="geometry">
            <mxPoint x="800" y="179.5" as="sourcePoint" />
            <mxPoint x="840" y="320" as="targetPoint" />
            <Array as="points">
              <mxPoint x="840" y="180" />
              <mxPoint x="840" y="320" />
            </Array>
          </mxGeometry>
        </mxCell>
        <mxCell id="jL19WNAzU7R48gSfyLo7-25" value="" style="endArrow=classic;html=1;rounded=0;" parent="1" edge="1">
          <mxGeometry width="50" height="50" relative="1" as="geometry">
            <mxPoint x="720" y="320" as="sourcePoint" />
            <mxPoint x="680" y="320" as="targetPoint" />
          </mxGeometry>
        </mxCell>
        <mxCell id="jL19WNAzU7R48gSfyLo7-28" value="" style="endArrow=classic;html=1;rounded=0;" parent="1" edge="1">
          <mxGeometry width="50" height="50" relative="1" as="geometry">
            <mxPoint x="480" y="319.5" as="sourcePoint" />
            <mxPoint x="440" y="319.5" as="targetPoint" />
          </mxGeometry>
        </mxCell>
        <mxCell id="jL19WNAzU7R48gSfyLo7-29" value="" style="endArrow=classic;html=1;rounded=0;" parent="1" edge="1">
          <mxGeometry width="50" height="50" relative="1" as="geometry">
            <mxPoint x="600" y="319.5" as="sourcePoint" />
            <mxPoint x="560" y="319.5" as="targetPoint" />
          </mxGeometry>
        </mxCell>
        <mxCell id="jL19WNAzU7R48gSfyLo7-30" value="" style="endArrow=classic;html=1;rounded=0;" parent="1" edge="1">
          <mxGeometry width="50" height="50" relative="1" as="geometry">
            <mxPoint x="240" y="319.5" as="sourcePoint" />
            <mxPoint x="200" y="319.5" as="targetPoint" />
          </mxGeometry>
        </mxCell>
        <mxCell id="jL19WNAzU7R48gSfyLo7-31" value="" style="shape=curlyBracket;whiteSpace=wrap;html=1;rounded=1;labelPosition=left;verticalLabelPosition=middle;align=right;verticalAlign=middle;" parent="1" vertex="1">
          <mxGeometry x="40" y="120" width="20" height="120" as="geometry" />
        </mxCell>
        <mxCell id="jL19WNAzU7R48gSfyLo7-32" value="" style="shape=curlyBracket;whiteSpace=wrap;html=1;rounded=1;labelPosition=left;verticalLabelPosition=middle;align=right;verticalAlign=middle;" parent="1" vertex="1">
          <mxGeometry x="40" y="260" width="20" height="120" as="geometry" />
        </mxCell>
        <mxCell id="jL19WNAzU7R48gSfyLo7-33" value="CI" style="text;html=1;align=center;verticalAlign=middle;resizable=0;points=[];autosize=1;strokeColor=none;fillColor=none;" parent="1" vertex="1">
          <mxGeometry y="165" width="40" height="30" as="geometry" />
        </mxCell>
        <mxCell id="jL19WNAzU7R48gSfyLo7-34" value="CD" style="text;html=1;align=center;verticalAlign=middle;resizable=0;points=[];autosize=1;strokeColor=none;fillColor=none;" parent="1" vertex="1">
          <mxGeometry y="305" width="40" height="30" as="geometry" />
        </mxCell>
        <mxCell id="jL19WNAzU7R48gSfyLo7-35" value="&lt;h3&gt;DevSecOps Golden Pipeline&lt;/h3&gt;" style="text;html=1;align=center;verticalAlign=middle;resizable=0;points=[];autosize=1;strokeColor=none;fillColor=none;" parent="1" vertex="1">
          <mxGeometry x="320" y="80" width="210" height="60" as="geometry" />
        </mxCell>
        <mxCell id="jL19WNAzU7R48gSfyLo7-36" value="镜像/App" style="rounded=0;whiteSpace=wrap;html=1;" parent="1" vertex="1">
          <mxGeometry x="600" y="300" width="80" height="40" as="geometry" />
        </mxCell>
        <mxCell id="jL19WNAzU7R48gSfyLo7-37" value="App合规检测" style="rounded=0;whiteSpace=wrap;html=1;fillColor=#d5e8d4;strokeColor=#82b366;" parent="1" vertex="1">
          <mxGeometry x="360" y="265" width="80" height="40" as="geometry" />
        </mxCell>
        <mxCell id="jL19WNAzU7R48gSfyLo7-38" value="" style="endArrow=none;dashed=1;html=1;rounded=0;" parent="1" edge="1">
          <mxGeometry width="50" height="50" relative="1" as="geometry">
            <mxPoint x="960" y="520" as="sourcePoint" />
            <mxPoint x="960" y="520" as="targetPoint" />
            <Array as="points">
              <mxPoint x="960" y="470" />
              <mxPoint x="1060" y="470" />
              <mxPoint x="1060" y="520" />
            </Array>
          </mxGeometry>
        </mxCell>
        <mxCell id="jL19WNAzU7R48gSfyLo7-39" value="" style="endArrow=classic;html=1;rounded=0;" parent="1" edge="1">
          <mxGeometry width="50" height="50" relative="1" as="geometry">
            <mxPoint x="360" y="319.5" as="sourcePoint" />
            <mxPoint x="320" y="319.5" as="targetPoint" />
          </mxGeometry>
        </mxCell>
        <mxCell id="uJ8aE7mTXSFcYYKHW2Ai-1" value="红蓝对抗" style="rounded=0;whiteSpace=wrap;html=1;fillColor=#d5e8d4;strokeColor=#82b366;" parent="1" vertex="1">
          <mxGeometry y="440" width="80" height="40" as="geometry" />
        </mxCell>
        <mxCell id="uJ8aE7mTXSFcYYKHW2Ai-2" value="" style="shape=flexArrow;endArrow=classic;html=1;rounded=0;" parent="1" edge="1">
          <mxGeometry width="50" height="50" relative="1" as="geometry">
            <mxPoint x="80" y="430" as="sourcePoint" />
            <mxPoint x="80" y="390" as="targetPoint" />
          </mxGeometry>
        </mxCell>
        <mxCell id="uJ8aE7mTXSFcYYKHW2Ai-3" value="安全运营" style="rounded=0;whiteSpace=wrap;html=1;fillColor=#d5e8d4;strokeColor=#82b366;" parent="1" vertex="1">
          <mxGeometry x="90" y="440" width="80" height="40" as="geometry" />
        </mxCell>
      </root>
    </mxGraphModel>
  </diagram>
</mxfile>
